<svg id="Layer_1" data-name="Layer 1" xmlns="http://www.w3.org/2000/svg" viewBox="2689.490234375 0 585.469970703125 483.8999996185303" style="width: {{ .size }}; height: auto; fill: currentColor;{{ if .maxSize }} max-width: {{ .maxSize }};{{end}}">
    <path d="M1141.11,1144.7h-15.33v-32.24l-15.14,32.24h-17l-15.14-32.24v32.24h-15.23v-63.18h16.9l22,46.36,21.93-46.36h17Z" transform="translate(1626.22 -662.1)" />
    <path d="M1222.12,1081.52v14.12H1189v10.87h27.68v13.2H1189v10.87h33.16v14.12h-48.4v-63.18Z" transform="translate(1626.22 -662.1)" />
    <path d="M1330.91,1144.7h-15.32v-32.24l-15.15,32.24h-17l-15.14-32.24v32.24h-15.24v-63.18H1270l22,46.36,21.92-46.36h17Z" transform="translate(1626.22 -662.1)" />
    <path d="M1424.66,1113.11a32.61,32.61,0,1,1-32.61-32.7A32.73,32.73,0,0,1,1424.66,1113.11Zm-51.29,0a18.59,18.59,0,1,0,18.68-18.49A18.6,18.6,0,0,0,1373.37,1113.11Z" transform="translate(1626.22 -662.1)" />
    <path d="M1506.32,1105.21c0,9.11-4.46,16.82-11.24,20.44l13,19h-19l-9.47-15.7h-11.15v15.7h-15.24v-63.18h30.57C1496.66,1081.52,1506.32,1091.46,1506.32,1105.21Zm-37.81-9.57v19.24h13.1a9.62,9.62,0,0,0,.09-19.24Z" transform="translate(1626.22 -662.1)" />
    <path d="M1552.77,1144.7h-15.23v-63.18h15.23Z" transform="translate(1626.22 -662.1)" />
    <path d="M1582.88,1134.66l21.18-20.9-22.3-22.48,10.87-10.87,22.3,22.48,22.94-22.48,10.87,10.77L1625.61,1114l21.09,21-11,11-20.82-21.18-21.08,21Z" transform="translate(1626.22 -662.1)" />
    <polygon points="3225.28 24.12 3225.28 72.64 3028.89 155.7 2971.54 179.96 2914.18 155.7 2739.17 81.68 2739.17 33.16 2971.55 131.44 3225.28 24.12" />
    <polygon points="3225.28 108.49 3225.28 157 3128.63 197.88 3071.28 222.14 3028.89 240.06 2971.54 264.32 2914.18 240.06 2871.8 222.14 2814.45 197.88 2739.17 166.04 2739.17 117.53 2871.81 173.63 2929.16 197.88 2971.54 215.8 3013.91 197.88 3071.27 173.62 3071.28 173.62 3225.28 108.49" />
    <polygon points="3225.28 192.84 3225.28 241.37 3202.33 251.08 3171 264.32 3128.63 282.24 3071.27 306.51 3028.89 324.43 2971.55 348.68 2914.18 324.43 2871.82 306.5 2871.81 306.5 2814.45 282.24 2814.44 282.24 2772.07 264.31 2740.76 251.08 2739.17 247.33 2739.17 201.89 2772.08 215.8 2829.43 240.06 2871.81 257.98 2929.16 282.24 2971.54 300.17 3013.91 282.24 3071.28 257.98 3113.65 240.06 3171 215.8 3225.28 192.84" />
    <polygon points="2739.16 201.89 2796.46 177.65 2796.46 226.17 2739.16 250.41 2739.16 201.89" />
    <polygon points="2739.16 117.52 2796.46 93.29 2796.46 141.8 2739.16 166.04 2739.16 117.52" />
    <path d="M1145.85,681.35,1170.24,671v48.51l-24.39,10.32-32.91,13.91V695Z" transform="translate(1626.22 -662.1)" />
    <polygon points="3225.28 192.91 3225.28 241.43 3168.09 217.24 3168.09 168.72 3225.28 192.91" />
    <polygon points="3225.28 108.55 3225.28 157.06 3168.09 132.88 3168.09 84.36 3225.28 108.55" />
    <polygon points="3225.28 24.18 3225.28 72.71 3171 49.75 3168.09 48.52 3168.09 0 3171 1.23 3202.33 14.47 3225.28 24.18" />
</svg>