<svg id="Layer_1" data-name="Layer 1" xmlns="http://www.w3.org/2000/svg" viewBox="2689.490234375 418 585.469970703125 65.8999996185303" style="width: {{ .size }}; height: auto; fill: currentColor;{{ if .maxSize }} max-width: {{ .maxSize }};{{end}}">
    <path d="M1141.11,1144.7h-15.33v-32.24l-15.14,32.24h-17l-15.14-32.24v32.24h-15.23v-63.18h16.9l22,46.36,21.93-46.36h17Z" transform="translate(1626.22 -662.1)" />
    <path d="M1222.12,1081.52v14.12H1189v10.87h27.68v13.2H1189v10.87h33.16v14.12h-48.4v-63.18Z" transform="translate(1626.22 -662.1)" />
    <path d="M1330.91,1144.7h-15.32v-32.24l-15.15,32.24h-17l-15.14-32.24v32.24h-15.24v-63.18H1270l22,46.36,21.92-46.36h17Z" transform="translate(1626.22 -662.1)" />
    <path d="M1424.66,1113.11a32.61,32.61,0,1,1-32.61-32.7A32.73,32.73,0,0,1,1424.66,1113.11Zm-51.29,0a18.59,18.59,0,1,0,18.68-18.49A18.6,18.6,0,0,0,1373.37,1113.11Z" transform="translate(1626.22 -662.1)" />
    <path d="M1506.32,1105.21c0,9.11-4.46,16.82-11.24,20.44l13,19h-19l-9.47-15.7h-11.15v15.7h-15.24v-63.18h30.57C1496.66,1081.52,1506.32,1091.46,1506.32,1105.21Zm-37.81-9.57v19.24h13.1a9.62,9.62,0,0,0,.09-19.24Z" transform="translate(1626.22 -662.1)" />
    <path d="M1552.77,1144.7h-15.23v-63.18h15.23Z" transform="translate(1626.22 -662.1)" />
    <path d="M1582.88,1134.66l21.18-20.9-22.3-22.48,10.87-10.87,22.3,22.48,22.94-22.48,10.87,10.77L1625.61,1114l21.09,21-11,11-20.82-21.18-21.08,21Z" transform="translate(1626.22 -662.1)" />
</svg>